<svg width="425" height="380" viewBox="0 0 425 380" fill="none" xmlns="http://www.w3.org/2000/svg">
<g clip-path="url(#clip0_120_19)">
<path d="M635.8 -49.3H-57.8V542.3H635.8V-49.3Z" fill="white"/>
<path d="M635.8 -49.3H-57.8V542.3H635.8V-49.3Z" fill="white"/>
<path d="M635.8 -49.3H-57.8V542.3H635.8V-49.3Z" fill="white"/>
<path d="M528.148 341.295C530.375 339.836 532.398 338.162 534.211 336.329C536.011 334.49 537.691 332.544 539.069 330.438C544.735 322.047 546.734 311.941 546.06 302.132C545.746 297.207 544.819 292.318 543.452 287.573C542.784 285.185 541.959 282.854 541.098 280.548C540.629 279.397 540.165 278.252 539.708 277.112C539.202 276.018 538.708 274.925 538.208 273.841L537.841 273.03L537.396 272.162C537.107 271.581 536.812 271.006 536.523 270.431C536.227 269.856 535.938 269.286 535.649 268.711L534.837 267.206C533.681 265.065 532.44 262.98 531.164 260.936C530.7 260.201 530.231 259.482 529.755 258.763C526.426 140.875 379.848 149.877 379.848 149.877L379.878 149.913L379.848 149.882C379.939 149.995 389.542 162.459 402.679 194.386C428.437 256.976 486.513 260.504 521.657 276.671C504.618 235.782 423.698 175.462 423.698 175.462C423.698 175.462 498.766 216.242 526.408 263.704L526.787 264.453C527.058 265.029 527.335 265.609 527.606 266.189C527.883 266.769 528.166 267.355 528.437 267.935L528.858 268.808L529.207 269.63C529.671 270.729 530.14 271.828 530.604 272.937C531.038 274.077 531.471 275.238 531.905 276.393C532.699 278.714 533.464 281.072 534.072 283.46C535.306 288.236 536.101 293.14 536.27 298.065C536.679 307.889 534.397 317.954 528.503 326.227C527.07 328.312 525.342 330.218 523.493 332.015C521.627 333.812 519.562 335.445 517.292 336.863C515.04 338.285 512.62 339.523 510.067 340.545C507.508 341.541 504.811 342.306 502.035 342.846C496.49 343.945 490.596 343.955 484.773 343.123C480.541 342.466 476.35 341.315 472.292 339.713C474.363 340.961 476.465 342.147 478.656 343.128C484.147 345.701 489.957 347.416 495.81 348.207C501.656 348.926 507.544 348.792 513.059 347.58C515.823 346.985 518.49 346.168 521.031 345.121C523.56 344.047 525.944 342.763 528.148 341.295Z" fill="#8D9F94"/>
<path d="M311.247 462.383C313.836 463.297 316.551 463.954 319.315 464.38C322.078 464.796 324.884 465.063 327.714 465.027C339.051 465.017 350.31 461.443 359.919 456.04C364.76 453.355 369.258 450.222 373.388 446.833C375.459 445.153 377.422 443.371 379.331 441.579C380.258 440.665 381.191 439.746 382.106 438.837C382.973 437.923 383.834 437.003 384.683 436.1L385.327 435.417L385.99 434.651C386.423 434.148 386.863 433.645 387.302 433.142C387.736 432.643 388.175 432.135 388.603 431.637L389.729 430.286C391.318 428.355 392.817 426.394 394.25 424.437C394.762 423.728 395.262 423.015 395.749 422.306C513.655 360.902 431.236 257.012 431.236 257.012V257.017L431.218 257.053L431.23 257.017C431.164 257.141 423.319 270.472 397.507 296.149C346.902 346.492 372.364 391.201 373.533 425.264C406.491 392.228 427.214 302.23 427.214 302.23C427.214 302.23 423.397 378.126 389.066 422.301L388.5 422.948C388.049 423.446 387.597 423.939 387.146 424.432C386.7 424.925 386.249 425.423 385.791 425.916L385.117 426.666L384.454 427.333C383.575 428.222 382.696 429.121 381.805 430.024C380.86 430.908 379.909 431.806 378.945 432.705C376.995 434.461 374.984 436.202 372.864 437.846C368.632 441.143 364.056 444.188 359.143 446.771C349.389 451.989 338.04 455.332 326.702 455.111C323.867 455.09 321.067 454.767 318.321 454.294C315.57 453.822 312.873 453.108 310.314 452.138C307.737 451.182 305.274 450.017 302.968 448.635C300.662 447.238 298.549 445.626 296.616 443.844C292.721 440.29 289.765 435.951 287.7 431.221C286.249 427.77 285.321 424.088 284.918 420.288C284.683 422.445 284.533 424.596 284.635 426.707C284.767 432.048 285.935 437.209 288.061 441.923C290.258 446.607 293.335 450.895 297.327 454.371C299.302 456.107 301.469 457.684 303.805 459.029C306.147 460.364 308.646 461.484 311.247 462.383Z" fill="#8D9F94"/>
<path d="M79.9748 362.535C80.3421 364.907 81.0284 367.249 81.9857 369.498C82.937 371.753 84.081 373.961 85.52 376.036C91.2097 384.417 100.458 390.954 110.747 395.355C115.895 397.594 121.308 399.351 126.805 400.717C129.562 401.405 132.338 401.959 135.114 402.478C136.516 402.714 137.907 402.94 139.292 403.171C140.653 403.346 142.007 403.521 143.356 403.7L144.362 403.834L145.463 403.942C146.198 404.008 146.932 404.08 147.655 404.157C148.39 404.224 149.118 404.296 149.841 404.368L151.773 404.522C154.519 404.738 157.258 404.861 159.974 404.943C160.943 404.964 161.912 404.979 162.882 404.984C284.111 461.463 348.263 348.577 348.263 348.577L348.221 348.587L348.257 348.577C348.101 348.587 330.664 349.455 291.709 343.205C215.347 330.957 182.732 372.138 148.769 390.04C198.754 397.892 300.397 368.209 300.397 368.209C300.397 368.209 221.507 403.336 159.54 400.039L158.595 399.946C157.866 399.864 157.144 399.772 156.415 399.684C155.693 399.602 154.964 399.515 154.23 399.428L153.134 399.299L152.128 399.15C150.78 398.945 149.437 398.739 148.082 398.534C146.704 398.277 145.319 398.02 143.928 397.764C141.165 397.189 138.395 396.577 135.667 395.828C130.207 394.354 124.836 392.49 119.76 390.153C109.591 385.541 100.524 378.824 95.075 370.33C93.6842 368.225 92.6065 365.996 91.7094 363.726C90.8243 361.451 90.1921 359.104 89.8971 356.721C89.578 354.344 89.5359 351.935 89.7707 349.537C90.0476 347.144 90.6136 344.766 91.4625 342.445C93.1122 337.792 96.0444 333.432 99.8074 329.545C102.589 326.741 105.852 324.219 109.507 322.021C107.201 322.925 104.943 323.886 102.854 325.021C97.5075 327.783 92.8594 331.229 89.1385 335.163C85.4778 339.128 82.6721 343.544 81.1489 348.238C80.3601 350.569 79.8604 352.957 79.6557 355.355C79.4811 357.759 79.5895 360.167 79.9748 362.535Z" fill="#8D9F94"/>
<path d="M65.6151 141.594C63.3814 143.057 61.3644 144.731 59.5461 146.565C57.7519 148.398 56.0661 150.339 54.6933 152.45C49.0277 160.846 47.0288 170.948 47.7092 180.762C48.0102 185.686 48.9374 190.57 50.3102 195.32C50.9725 197.698 51.8033 200.035 52.6643 202.346C53.1279 203.496 53.5975 204.641 54.0551 205.771C54.5609 206.87 55.0546 207.964 55.5483 209.047L55.9216 209.859L56.3671 210.727C56.6561 211.307 56.9511 211.882 57.2401 212.457C57.5352 213.027 57.8242 213.603 58.1132 214.173L58.926 215.682C60.082 217.829 61.3162 219.909 62.5987 221.953C63.0563 222.687 63.5319 223.411 64.0076 224.13C67.3371 342.014 213.908 333.011 213.908 333.011L213.878 332.975L213.908 333.001C213.824 332.893 204.221 320.435 191.083 288.508C165.326 225.912 107.243 222.384 72.1056 206.218C89.1445 247.111 170.065 307.427 170.065 307.427C170.065 307.427 94.9908 266.651 67.3551 219.185L66.9758 218.435C66.6989 217.86 66.4279 217.285 66.151 216.699C65.88 216.119 65.5971 215.539 65.3261 214.958L64.9047 214.085L64.5555 213.253C64.0858 212.159 63.6222 211.06 63.1526 209.956C62.7251 208.806 62.2856 207.656 61.8581 206.495C61.0574 204.169 60.2987 201.817 59.6906 199.429C58.4503 194.658 57.6616 189.749 57.493 184.824C57.0836 175 59.3655 164.934 65.2599 156.661C66.6928 154.581 68.4208 152.671 70.2752 150.868C72.1357 149.081 74.2008 147.438 76.4647 146.026C78.7165 144.603 81.1368 143.365 83.6957 142.349C86.2545 141.347 88.9519 140.582 91.7275 140.048C97.2727 138.939 103.167 138.928 108.983 139.771C113.222 140.418 117.412 141.578 121.47 143.175C119.399 141.922 117.292 140.736 115.1 139.76C109.615 137.188 103.805 135.467 97.953 134.687C92.1068 133.962 86.2184 134.096 80.7033 135.313C77.9398 135.904 75.2665 136.72 72.7257 137.773C70.203 138.841 67.8248 140.13 65.6151 141.594Z" fill="#8D9F94"/>
<mask id="mask0_120_19" style="mask-type:luminance" maskUnits="userSpaceOnUse" x="134" y="17" width="176" height="210">
<path d="M134.096 17.8456H309.808V226.123H134.096V17.8456Z" fill="white"/>
</mask>
<g mask="url(#mask0_120_19)">
<path d="M282.515 20.5058C279.926 19.5866 277.205 18.9292 274.448 18.5133C271.684 18.087 268.878 17.8251 266.048 17.8611C254.705 17.8765 243.452 21.4456 233.843 26.8532C228.996 29.539 224.511 32.6613 220.374 36.0507C218.303 37.7403 216.346 39.512 214.426 41.3094C213.505 42.2286 212.571 43.1427 211.65 44.0517C210.783 44.9709 209.928 45.8799 209.073 46.7889L208.429 47.4719L207.779 48.2319C207.333 48.7403 206.9 49.2436 206.46 49.752C206.027 50.2501 205.587 50.7534 205.16 51.2567L204.034 52.6073C202.438 54.5279 200.945 56.4897 199.506 58.4565C199 59.1652 198.501 59.879 198.013 60.5877C80.1071 121.992 162.526 225.876 162.526 225.876L162.538 225.835L162.532 225.866C162.599 225.748 170.438 212.421 196.249 186.739C246.86 136.397 221.398 91.6878 220.224 57.6246C187.272 90.6607 166.548 180.659 166.548 180.659C166.548 180.659 170.365 104.763 204.69 60.5929L205.262 59.9355C205.714 59.4477 206.165 58.9547 206.617 58.4617C207.062 57.9687 207.514 57.4705 207.972 56.9775L208.646 56.2226L209.302 55.555C210.187 54.6666 211.066 53.7679 211.957 52.8641C212.903 51.9756 213.86 51.0821 214.811 50.1782C216.768 48.4271 218.773 46.6913 220.898 45.048C225.125 41.7407 229.701 38.7057 234.62 36.1175C244.367 30.905 255.723 27.5619 267.066 27.7827C269.89 27.7981 272.689 28.1216 275.435 28.5941C278.193 29.0717 280.89 29.7855 283.449 30.751C286.026 31.7061 288.482 32.877 290.794 34.2533C293.094 35.645 295.213 37.2627 297.146 39.0447C301.042 42.5932 303.998 46.9429 306.063 51.6675C307.514 55.1236 308.435 58.8006 308.845 62.6008C309.073 60.4439 309.23 58.2973 309.128 56.1867C308.995 50.8458 307.821 45.6847 305.696 40.9704C303.498 36.2818 300.427 31.9989 296.436 28.5222C294.461 26.7813 292.287 25.2098 289.957 23.8592C287.609 22.5292 285.116 21.4096 282.515 20.5058Z" fill="#8D9F94"/>
</g>
<path d="M513.782 120.354C513.421 117.981 512.734 115.644 511.777 113.395C510.82 111.136 509.682 108.927 508.237 106.858C502.553 98.4716 493.305 91.9342 483.015 87.5383C477.867 85.2993 472.455 83.543 466.952 82.1769C464.2 81.4785 461.425 80.9239 458.643 80.4052C457.246 80.1793 455.855 79.9482 454.471 79.7222C453.11 79.5476 451.755 79.3679 450.406 79.1933L449.395 79.0495L448.293 78.9519C447.559 78.88 446.83 78.803 446.102 78.7362C445.367 78.6643 444.645 78.5924 443.916 78.5205L441.983 78.3716C439.238 78.1559 436.498 78.0275 433.789 77.9454C432.82 77.9248 431.85 77.9145 430.881 77.9094C309.651 21.4198 245.493 134.312 245.493 134.312V134.307L245.548 134.301L245.505 134.312C245.656 134.301 263.092 133.434 302.047 139.678C378.415 151.931 411.03 110.75 444.994 92.8483C395.009 85.0014 293.365 114.679 293.365 114.679C293.365 114.679 372.256 79.5527 434.216 82.8497L435.168 82.9472C435.89 83.0294 436.619 83.1167 437.341 83.204C438.07 83.2862 438.792 83.3786 439.527 83.4659L440.623 83.5892L441.628 83.7432C442.977 83.9435 444.325 84.1541 445.68 84.3544C447.059 84.6163 448.45 84.8679 449.834 85.1298C452.598 85.6947 455.368 86.3109 458.089 87.0607C463.556 88.5346 468.921 90.3987 474.002 92.7405C484.165 97.347 493.239 104.064 498.688 112.558C500.078 114.664 501.15 116.897 502.047 119.167C502.938 121.442 503.564 123.784 503.859 126.172C504.179 128.545 504.227 130.958 503.986 133.346C503.715 135.75 503.143 138.117 502.3 140.443C500.65 145.096 497.718 149.456 493.955 153.344C491.174 156.147 487.904 158.669 484.256 160.872C486.562 159.968 488.819 158.998 490.903 157.868C496.249 155.1 500.909 151.654 504.624 147.72C508.285 143.756 511.09 139.344 512.614 134.656C513.396 132.319 513.902 129.931 514.107 127.528C514.281 125.135 514.167 122.726 513.782 120.354Z" fill="#8D9F94"/>
</g>
<defs>
<clipPath id="clip0_120_19">
<rect width="578" height="493" fill="white"/>
</clipPath>
</defs>
</svg>
