<svg width="77" height="74" viewBox="0 0 77 74" fill="none" xmlns="http://www.w3.org/2000/svg">
<g clip-path="url(#clip0_120_106)">
<path d="M84.7 -7.39999H-7.69995V81.4H84.7V-7.39999Z" fill="white"/>
<path d="M84.7 -7.39999H-7.69995V81.4H84.7V-7.39999Z" fill="white"/>
<path d="M84.7 -7.39999H-7.69995V81.4H84.7V-7.39999Z" fill="white"/>
<path d="M70.3587 51.2288C70.6554 51.0099 70.9249 50.7586 71.1664 50.4834C71.4062 50.2075 71.63 49.9153 71.8136 49.5993C72.5684 48.3397 72.8347 46.8227 72.7449 45.3504C72.7031 44.6112 72.5796 43.8774 72.3976 43.1651C72.3085 42.8067 72.1986 42.4567 72.0839 42.1106C72.0214 41.938 71.9596 41.7661 71.8987 41.5949C71.8313 41.4308 71.7655 41.2666 71.6989 41.1039L71.65 40.9821L71.5907 40.8519C71.5522 40.7648 71.5129 40.6784 71.4744 40.5921C71.4351 40.5058 71.3966 40.4202 71.3581 40.3339L71.2498 40.108C71.0958 39.7866 70.9305 39.4736 70.7605 39.1668C70.6987 39.0566 70.6362 38.9487 70.5728 38.8408C70.1293 21.1455 50.6025 22.4968 50.6025 22.4968L50.6065 22.5022L50.6025 22.4975C50.6146 22.5145 51.8939 24.3853 53.644 29.1776C57.0754 38.5725 64.8122 39.1021 69.494 41.5286C67.2241 35.3913 56.4441 26.3371 56.4441 26.3371C56.4441 26.3371 66.4445 32.4583 70.1269 39.5823L70.1774 39.6948C70.2135 39.7812 70.2504 39.8683 70.2865 39.9554C70.3234 40.0425 70.3611 40.1304 70.3972 40.2175L70.4533 40.3485L70.4998 40.4718C70.5616 40.6368 70.6241 40.8018 70.6859 40.9683C70.7437 41.1394 70.8014 41.3136 70.8592 41.487C70.965 41.8354 71.0669 42.1893 71.1479 42.5477C71.3123 43.2646 71.4182 44.0007 71.4407 44.7399C71.4952 46.2145 71.1912 47.7254 70.406 48.9672C70.2151 49.2801 69.9849 49.5661 69.7386 49.8359C69.49 50.1057 69.2149 50.3508 68.9125 50.5636C68.6125 50.7771 68.2901 50.9629 67.95 51.1163C67.6091 51.2658 67.2498 51.3807 66.88 51.4616C66.1413 51.6266 65.3561 51.6281 64.5804 51.5032C64.0166 51.4046 63.4583 51.2319 62.9177 50.9914C63.1936 51.1787 63.4736 51.3568 63.7655 51.504C64.497 51.8902 65.271 52.1476 66.0507 52.2664C66.8295 52.3743 67.6139 52.3542 68.3486 52.1723C68.7168 52.0829 69.0721 51.9603 69.4106 51.8031C69.7475 51.642 70.0651 51.4493 70.3587 51.2288Z" fill="#8D9F94"/>
<path d="M41.4636 69.4043C41.8085 69.5415 42.1703 69.6402 42.5384 69.7041C42.9066 69.7666 43.2803 69.8067 43.6573 69.8013C45.1676 69.7997 46.6675 69.2632 47.9477 68.4523C48.5925 68.0492 49.1917 67.579 49.7419 67.0702C50.0178 66.8181 50.2793 66.5507 50.5336 66.2816C50.6571 66.1444 50.7814 66.0065 50.9033 65.87C51.0188 65.7328 51.1335 65.5948 51.2466 65.4592L51.3325 65.3566L51.4207 65.2418C51.4784 65.1663 51.537 65.0907 51.5955 65.0152C51.6533 64.9404 51.7118 64.8641 51.7688 64.7893L51.9188 64.5866C52.1305 64.2968 52.3302 64.0023 52.5211 63.7086C52.5893 63.6022 52.6559 63.4951 52.7209 63.3887C68.4281 54.1719 57.4483 38.5779 57.4483 38.5779V38.5787L57.4459 38.5841L57.4475 38.5787C57.4387 38.5972 56.3936 40.5983 52.9551 44.4524C46.2136 52.0089 49.6056 58.7198 49.7612 63.8327C54.1518 58.8739 56.9125 45.3651 56.9125 45.3651C56.9125 45.3651 56.404 56.7572 51.8305 63.3879L51.7551 63.4851C51.695 63.5598 51.6348 63.6338 51.5747 63.7078C51.5153 63.7818 51.4552 63.8566 51.3942 63.9306L51.3044 64.0431L51.2161 64.1434C51.099 64.2767 50.9819 64.4116 50.8632 64.5473C50.7373 64.6799 50.6106 64.8148 50.4822 64.9496C50.2224 65.2133 49.9545 65.4746 49.6721 65.7213C49.1083 66.2161 48.4987 66.6732 47.8442 67.061C46.5448 67.8441 45.0329 68.3459 43.5226 68.3128C43.1448 68.3097 42.7718 68.2611 42.4061 68.1902C42.0395 68.1193 41.6802 68.0122 41.3393 67.8665C40.996 67.7231 40.668 67.5481 40.3608 67.3408C40.0536 67.1311 39.772 66.8891 39.5146 66.6216C38.9956 66.0882 38.6018 65.4368 38.3267 64.7269C38.1334 64.2089 38.0098 63.6562 37.9561 63.0858C37.9248 63.4095 37.9048 63.7325 37.9184 64.0493C37.9361 64.851 38.0917 65.6257 38.3748 66.3333C38.6676 67.0363 39.0774 67.6799 39.6092 68.2018C39.8723 68.4623 40.161 68.699 40.4722 68.9009C40.7843 69.1014 41.1171 69.2694 41.4636 69.4043Z" fill="#8D9F94"/>
<path d="M10.6541 54.417C10.7031 54.7731 10.7945 55.1246 10.922 55.4622C11.0488 55.8006 11.2011 56.1321 11.3928 56.4435C12.1508 57.7015 13.3828 58.6828 14.7536 59.3434C15.4394 59.6795 16.1604 59.9431 16.8927 60.1481C17.2601 60.2514 17.6298 60.3347 17.9996 60.4125C18.1865 60.448 18.3718 60.4819 18.5563 60.5166C18.7375 60.5428 18.918 60.569 19.0977 60.596L19.2316 60.616L19.3784 60.6322C19.4762 60.6422 19.5741 60.653 19.6703 60.6646C19.7682 60.6746 19.8653 60.6854 19.9615 60.6962L20.219 60.7193C20.5847 60.7517 20.9497 60.7702 21.3114 60.7825C21.4405 60.7856 21.5697 60.7879 21.6988 60.7887C37.8488 69.2663 46.395 52.3219 46.395 52.3219L46.3893 52.3234L46.3942 52.3219C46.3733 52.3234 44.0505 52.4537 38.861 51.5156C28.6882 49.6771 24.3433 55.8584 19.8187 58.5456C26.4776 59.7242 40.0184 55.2688 40.0184 55.2688C40.0184 55.2688 29.5087 60.5413 21.2537 60.0464L21.1277 60.0325C21.0307 60.0202 20.9344 60.0063 20.8374 59.9932C20.7411 59.9809 20.6441 59.9678 20.5462 59.9546L20.4002 59.9354L20.2663 59.913C20.0866 59.8822 19.9078 59.8514 19.7273 59.8205C19.5436 59.782 19.3591 59.7434 19.1739 59.7049C18.8057 59.6186 18.4367 59.5268 18.0734 59.4143C17.3459 59.1931 16.6305 58.9133 15.9543 58.5625C14.5996 57.8703 13.3916 56.8621 12.6658 55.5871C12.4805 55.2711 12.3369 54.9365 12.2174 54.5958C12.0995 54.2543 12.0153 53.9021 11.976 53.5444C11.9335 53.1875 11.9278 52.826 11.9591 52.466C11.996 52.1068 12.0714 51.7499 12.1845 51.4015C12.4043 50.7031 12.7949 50.0487 13.2962 49.4651C13.6668 49.0443 14.1015 48.6658 14.5883 48.3359C14.2811 48.4715 13.9804 48.6157 13.702 48.786C12.9898 49.2008 12.3706 49.718 11.8749 50.3084C11.3872 50.9035 11.0135 51.5664 10.8105 52.271C10.7055 52.6209 10.6389 52.9794 10.6116 53.3394C10.5884 53.7001 10.6028 54.0616 10.6541 54.417Z" fill="#8D9F94"/>
<path d="M8.74102 21.2534C8.44345 21.4731 8.17475 21.7244 7.93252 21.9996C7.6935 22.2748 7.46892 22.5661 7.28604 22.883C6.53128 24.1433 6.26499 25.6595 6.35562 27.1326C6.39573 27.8718 6.51925 28.6048 6.70212 29.3179C6.79035 29.6748 6.90104 30.0255 7.01574 30.3724C7.0775 30.545 7.14006 30.7169 7.20102 30.8865C7.2684 31.0515 7.33417 31.2157 7.39994 31.3783L7.44967 31.5001L7.50902 31.6304C7.54752 31.7175 7.58682 31.8038 7.62532 31.8901C7.66462 31.9757 7.70312 32.062 7.74162 32.1476L7.84991 32.3742C8.00391 32.6964 8.16833 33.0086 8.33918 33.3154C8.40013 33.4256 8.4635 33.5343 8.52686 33.6422C8.97042 51.3367 28.4963 49.9855 28.4963 49.9855L28.4923 49.9801L28.4963 49.9839C28.4851 49.9677 27.2058 48.0977 25.4556 43.3054C22.0243 33.9097 14.2866 33.3802 9.60567 30.9536C11.8756 37.0917 22.6556 46.1452 22.6556 46.1452C22.6556 46.1452 12.6544 40.0247 8.97282 32.8999L8.92229 32.7874C8.8854 32.7011 8.8493 32.6147 8.81241 32.5268C8.77631 32.4397 8.73861 32.3526 8.70252 32.2655L8.64637 32.1345L8.59985 32.0096C8.53729 31.8454 8.47553 31.6805 8.41297 31.5147C8.35602 31.3421 8.29747 31.1694 8.24052 30.9952C8.13384 30.646 8.03278 30.293 7.95177 29.9345C7.78654 29.2184 7.68147 28.4815 7.65901 27.7423C7.60447 26.2677 7.90846 24.7568 8.6937 23.515C8.88459 23.2029 9.11479 22.9161 9.36183 22.6455C9.60968 22.3773 9.88479 22.1306 10.1864 21.9186C10.4864 21.7051 10.8088 21.5193 11.1497 21.3667C11.4906 21.2164 11.8499 21.1016 12.2197 21.0214C12.9584 20.8549 13.7436 20.8533 14.5184 20.9798C15.0831 21.0769 15.6413 21.2511 16.1819 21.4908C15.906 21.3027 15.6253 21.1247 15.3333 20.9782C14.6026 20.592 13.8286 20.3338 13.049 20.2166C12.2702 20.108 11.4857 20.128 10.751 20.3107C10.3829 20.3993 10.0268 20.5219 9.68828 20.6799C9.35221 20.8402 9.03538 21.0337 8.74102 21.2534Z" fill="#8D9F94"/>
<mask id="mask0_120_106" style="mask-type:luminance" maskUnits="userSpaceOnUse" x="17" y="2" width="25" height="32">
<path d="M17.864 2.67865H41.272V33.9413H17.864V2.67865Z" fill="white"/>
</mask>
<g mask="url(#mask0_120_106)">
<path d="M37.6362 3.07794C37.2913 2.93996 36.9288 2.84129 36.5614 2.77885C36.1933 2.71488 35.8195 2.67556 35.4425 2.68096C33.9314 2.68327 32.4323 3.219 31.1522 4.03069C30.5065 4.43383 29.9089 4.9025 29.3579 5.41125C29.082 5.66485 28.8213 5.93079 28.5655 6.20058C28.4427 6.33856 28.3184 6.47577 28.1957 6.61221C28.0802 6.75019 27.9663 6.88663 27.8524 7.02306L27.7666 7.12558L27.68 7.23967C27.6206 7.31598 27.5628 7.39152 27.5043 7.46783C27.4465 7.5426 27.388 7.61815 27.331 7.69369L27.1811 7.89642C26.9685 8.18471 26.7696 8.47917 26.5779 8.7744C26.5105 8.88077 26.4439 8.98792 26.379 9.09429C10.6718 18.3111 21.6515 33.9043 21.6515 33.9043L21.6531 33.8982L21.6523 33.9028C21.6611 33.8851 22.7054 31.8848 26.144 28.0298C32.8863 20.4733 29.4943 13.7625 29.3379 8.64952C24.9481 13.6083 22.1873 27.1171 22.1873 27.1171C22.1873 27.1171 22.6958 15.725 27.2685 9.09506L27.3447 8.9964C27.4048 8.92317 27.465 8.84917 27.5251 8.77517C27.5845 8.70117 27.6447 8.6264 27.7056 8.5524L27.7955 8.43908L27.8829 8.33888C28.0008 8.20552 28.1179 8.07063 28.2366 7.93496C28.3625 7.8016 28.4901 7.66748 28.6168 7.53181C28.8775 7.26896 29.1446 7.00842 29.4277 6.76175C29.9908 6.26533 30.6003 5.80977 31.2556 5.42127C32.5542 4.63888 34.0669 4.13706 35.5781 4.17021C35.9542 4.17252 36.3272 4.22108 36.693 4.292C37.0603 4.36369 37.4196 4.47083 37.7605 4.61575C38.1038 4.75913 38.4311 4.93487 38.7391 5.14146C39.0455 5.35035 39.3278 5.59317 39.5853 5.86065C40.1042 6.39329 40.498 7.04619 40.7732 7.75535C40.9665 8.27413 41.0892 8.82604 41.1437 9.39646C41.1742 9.07271 41.1951 8.7505 41.1814 8.43369C41.1638 7.63202 41.0074 6.85733 40.7242 6.14971C40.4315 5.44594 40.0224 4.80306 39.4906 4.28121C39.2275 4.0199 38.938 3.78402 38.6276 3.58129C38.3148 3.38165 37.9827 3.2136 37.6362 3.07794Z" fill="#8D9F94"/>
</g>
<path d="M68.4449 18.0653C68.3968 17.7091 68.3054 17.3584 68.1778 17.0208C68.0503 16.6816 67.8987 16.3502 67.7062 16.0395C66.9491 14.7807 65.7171 13.7995 64.3463 13.1396C63.6605 12.8035 62.9394 12.5399 62.2063 12.3349C61.8398 12.23 61.47 12.1468 61.0995 12.0689C60.9134 12.035 60.7281 12.0003 60.5436 11.9664C60.3623 11.9402 60.1819 11.9132 60.0022 11.887L59.8675 11.8654L59.7207 11.8508C59.6228 11.84 59.5258 11.8284 59.4287 11.8184C59.3309 11.8076 59.2346 11.7968 59.1376 11.786L58.8801 11.7637C58.5143 11.7313 58.1494 11.712 57.7885 11.6997C57.6593 11.6966 57.5302 11.6951 57.4011 11.6943C41.2511 3.21515 32.7041 20.1604 32.7041 20.1604V20.1596L32.7113 20.1588L32.7057 20.1604C32.7258 20.1588 35.0486 20.0286 40.2381 20.9659C50.4117 22.8051 54.7566 16.6238 59.2811 13.9367C52.6222 12.7588 39.0815 17.2135 39.0815 17.2135C39.0815 17.2135 49.5912 11.941 57.8454 12.4359L57.9721 12.4505C58.0684 12.4628 58.1654 12.4759 58.2617 12.489C58.3587 12.5014 58.455 12.5153 58.5528 12.5284L58.6988 12.5469L58.8328 12.57C59.0124 12.6 59.1921 12.6317 59.3726 12.6617C59.5562 12.701 59.7415 12.7388 59.926 12.7781C60.2942 12.8629 60.6631 12.9554 61.0257 13.0679C61.754 13.2892 62.4686 13.569 63.1456 13.9205C64.4995 14.6119 65.7082 15.6202 66.4341 16.8951C66.6194 17.2112 66.7622 17.5465 66.8817 17.8872C67.0004 18.2287 67.0838 18.5802 67.1231 18.9386C67.1656 19.2947 67.172 19.657 67.1399 20.0155C67.1039 20.3762 67.0277 20.7316 66.9154 21.0808C66.6956 21.7791 66.305 22.4336 65.8037 23.0171C65.4331 23.438 64.9976 23.8164 64.5115 24.1471C64.8187 24.0115 65.1195 23.8658 65.397 23.6962C66.1093 23.2807 66.7301 22.7635 67.225 22.173C67.7126 21.5779 68.0864 20.9158 68.2893 20.212C68.3936 19.8613 68.461 19.5029 68.4883 19.1421C68.5115 18.7829 68.4963 18.4214 68.4449 18.0653Z" fill="#8D9F94"/>
</g>
<defs>
<clipPath id="clip0_120_106">
<rect width="77" height="74" fill="white"/>
</clipPath>
</defs>
</svg>
